<mxfile host="app.diagrams.net" modified="2021-02-05T11:35:44.398Z" agent="5.0 (Windows NT 10.0; Win64; x64) AppleWebKit/537.36 (KHTML, like Gecko) Chrome/88.0.4324.146 Safari/537.36" etag="EO4Vp2Oe5DigSqLmagGB" version="14.2.9" type="github">
  <diagram id="R2lEEEUBdFMjLlhIrx00" name="Page-1">
    <mxGraphModel dx="1038" dy="580" grid="1" gridSize="10" guides="1" tooltips="1" connect="1" arrows="1" fold="1" page="1" pageScale="1" pageWidth="850" pageHeight="1100" math="0" shadow="0" extFonts="Permanent Marker^https://fonts.googleapis.com/css?family=Permanent+Marker">
      <root>
        <mxCell id="0" />
        <mxCell id="1" parent="0" />
        <mxCell id="X_YoMtpEk2eTqTma3p50-4" value="USER" style="swimlane;childLayout=stackLayout;horizontal=1;startSize=30;horizontalStack=0;rounded=1;fontSize=14;fontStyle=0;strokeWidth=2;resizeParent=0;resizeLast=1;shadow=0;dashed=0;align=center;" parent="1" vertex="1">
          <mxGeometry x="70" y="180" width="190" height="140" as="geometry" />
        </mxCell>
        <mxCell id="X_YoMtpEk2eTqTma3p50-5" value="id: Long,&#xa;nickname: String,&#xa;email: String,&#xa;password: String,&#xa;tel: String," style="align=left;strokeColor=none;fillColor=none;spacingLeft=4;fontSize=12;verticalAlign=top;resizable=0;rotatable=0;part=1;" parent="X_YoMtpEk2eTqTma3p50-4" vertex="1">
          <mxGeometry y="30" width="190" height="110" as="geometry" />
        </mxCell>
        <mxCell id="X_YoMtpEk2eTqTma3p50-8" value="&lt;&lt;Enum Type&gt;&gt;&#xa;Role" style="swimlane;childLayout=stackLayout;horizontal=1;startSize=40;horizontalStack=0;rounded=1;fontSize=14;fontStyle=0;strokeWidth=2;resizeParent=0;resizeLast=1;shadow=0;dashed=0;align=center;" parent="1" vertex="1">
          <mxGeometry x="280" y="60" width="210" height="100" as="geometry">
            <mxRectangle x="110" y="50" width="70" height="30" as="alternateBounds" />
          </mxGeometry>
        </mxCell>
        <mxCell id="X_YoMtpEk2eTqTma3p50-9" value="USER, ADMIN, GUEST" style="align=left;strokeColor=none;fillColor=none;spacingLeft=4;fontSize=12;verticalAlign=top;resizable=0;rotatable=0;part=1;" parent="X_YoMtpEk2eTqTma3p50-8" vertex="1">
          <mxGeometry y="40" width="210" height="60" as="geometry" />
        </mxCell>
        <mxCell id="X_YoMtpEk2eTqTma3p50-18" value="CITY" style="swimlane;childLayout=stackLayout;horizontal=1;startSize=30;horizontalStack=0;rounded=1;fontSize=14;fontStyle=0;strokeWidth=2;resizeParent=0;resizeLast=1;shadow=0;dashed=0;align=center;" parent="1" vertex="1">
          <mxGeometry x="30" y="440" width="190" height="140" as="geometry" />
        </mxCell>
        <mxCell id="X_YoMtpEk2eTqTma3p50-19" value="id: Long,&#xa;nickname: String,&#xa;email: String,&#xa;password: String,&#xa;tel: String," style="align=left;strokeColor=none;fillColor=none;spacingLeft=4;fontSize=12;verticalAlign=top;resizable=0;rotatable=0;part=1;" parent="X_YoMtpEk2eTqTma3p50-18" vertex="1">
          <mxGeometry y="30" width="190" height="110" as="geometry" />
        </mxCell>
        <mxCell id="X_YoMtpEk2eTqTma3p50-20" value="PLAN" style="swimlane;childLayout=stackLayout;horizontal=1;startSize=30;horizontalStack=0;rounded=1;fontSize=14;fontStyle=0;strokeWidth=2;resizeParent=0;resizeLast=1;shadow=0;dashed=0;align=center;" parent="1" vertex="1">
          <mxGeometry x="520" y="190" width="190" height="140" as="geometry" />
        </mxCell>
        <mxCell id="X_YoMtpEk2eTqTma3p50-21" value="id: Long,&#xa;nickname: String,&#xa;email: String,&#xa;password: String,&#xa;tel: String," style="align=left;strokeColor=none;fillColor=none;spacingLeft=4;fontSize=12;verticalAlign=top;resizable=0;rotatable=0;part=1;" parent="X_YoMtpEk2eTqTma3p50-20" vertex="1">
          <mxGeometry y="30" width="190" height="110" as="geometry" />
        </mxCell>
        <mxCell id="X_YoMtpEk2eTqTma3p50-24" value="PLACE" style="swimlane;childLayout=stackLayout;horizontal=1;startSize=30;horizontalStack=0;rounded=1;fontSize=14;fontStyle=0;strokeWidth=2;resizeParent=0;resizeLast=1;shadow=0;dashed=0;align=center;" parent="1" vertex="1">
          <mxGeometry x="250" y="440" width="190" height="140" as="geometry" />
        </mxCell>
        <mxCell id="X_YoMtpEk2eTqTma3p50-25" value="id: Long,&#xa;nickname: String,&#xa;email: String,&#xa;password: String,&#xa;tel: String," style="align=left;strokeColor=none;fillColor=none;spacingLeft=4;fontSize=12;verticalAlign=top;resizable=0;rotatable=0;part=1;" parent="X_YoMtpEk2eTqTma3p50-24" vertex="1">
          <mxGeometry y="30" width="190" height="110" as="geometry" />
        </mxCell>
        <mxCell id="X_YoMtpEk2eTqTma3p50-26" value="RESTAURANT" style="swimlane;childLayout=stackLayout;horizontal=1;startSize=30;horizontalStack=0;rounded=1;fontSize=14;fontStyle=0;strokeWidth=2;resizeParent=0;resizeLast=1;shadow=0;dashed=0;align=center;" parent="1" vertex="1">
          <mxGeometry x="470" y="440" width="190" height="140" as="geometry" />
        </mxCell>
        <mxCell id="X_YoMtpEk2eTqTma3p50-27" value="id: Long,&#xa;nickname: String,&#xa;email: String,&#xa;password: String,&#xa;tel: String," style="align=left;strokeColor=none;fillColor=none;spacingLeft=4;fontSize=12;verticalAlign=top;resizable=0;rotatable=0;part=1;" parent="X_YoMtpEk2eTqTma3p50-26" vertex="1">
          <mxGeometry y="30" width="190" height="110" as="geometry" />
        </mxCell>
        <mxCell id="X_YoMtpEk2eTqTma3p50-29" value="ACTIVITY" style="swimlane;childLayout=stackLayout;horizontal=1;startSize=30;horizontalStack=0;rounded=1;fontSize=14;fontStyle=0;strokeWidth=2;resizeParent=0;resizeLast=1;shadow=0;dashed=0;align=center;" parent="1" vertex="1">
          <mxGeometry x="30" y="620" width="190" height="140" as="geometry" />
        </mxCell>
        <mxCell id="X_YoMtpEk2eTqTma3p50-30" value="id: Long,&#xa;nickname: String,&#xa;email: String,&#xa;password: String,&#xa;tel: String," style="align=left;strokeColor=none;fillColor=none;spacingLeft=4;fontSize=12;verticalAlign=top;resizable=0;rotatable=0;part=1;" parent="X_YoMtpEk2eTqTma3p50-29" vertex="1">
          <mxGeometry y="30" width="190" height="110" as="geometry" />
        </mxCell>
      </root>
    </mxGraphModel>
  </diagram>
</mxfile>
